<svg width="26" height="26" viewBox="0 0 26 26" fill="none" xmlns="http://www.w3.org/2000/svg">
<g clip-path="url(#clip0_150_293)">
<path d="M13 24.375C9.98316 24.375 7.08989 23.1766 4.95666 21.0433C2.82343 18.9101 1.625 16.0168 1.625 13C1.625 9.98316 2.82343 7.08989 4.95666 4.95666C7.08989 2.82343 9.98316 1.625 13 1.625C16.0168 1.625 18.9101 2.82343 21.0433 4.95666C23.1766 7.08989 24.375 9.98316 24.375 13C24.375 16.0168 23.1766 18.9101 21.0433 21.0433C18.9101 23.1766 16.0168 24.375 13 24.375ZM13 26C16.4478 26 19.7544 24.6304 22.1924 22.1924C24.6304 19.7544 26 16.4478 26 13C26 9.55219 24.6304 6.24558 22.1924 3.80761C19.7544 1.36964 16.4478 0 13 0C9.55219 0 6.24558 1.36964 3.80761 3.80761C1.36964 6.24558 0 9.55219 0 13C0 16.4478 1.36964 19.7544 3.80761 22.1924C6.24558 24.6304 9.55219 26 13 26Z" fill="#D64545"/>
<path d="M18.4502 7.54974C18.3748 7.47407 18.2851 7.41404 18.1864 7.37308C18.0877 7.33212 17.9819 7.31104 17.875 7.31104C17.7681 7.31104 17.6623 7.33212 17.5636 7.37308C17.4649 7.41404 17.3752 7.47407 17.2997 7.54974L7.54974 17.2997C7.4742 17.3753 7.41427 17.465 7.37339 17.5637C7.3325 17.6624 7.31146 17.7682 7.31146 17.875C7.31146 17.9818 7.3325 18.0876 7.37339 18.1863C7.41427 18.285 7.4742 18.3747 7.54974 18.4502C7.7023 18.6028 7.90923 18.6885 8.12499 18.6885C8.23182 18.6885 8.33761 18.6675 8.43631 18.6266C8.53501 18.5857 8.6247 18.5258 8.70024 18.4502L18.4502 8.70024C18.5259 8.62476 18.5859 8.5351 18.6269 8.43639C18.6679 8.33768 18.6889 8.23186 18.6889 8.12499C18.6889 8.01812 18.6679 7.91229 18.6269 7.81358C18.5859 7.71487 18.5259 7.62521 18.4502 7.54974Z" fill="#D64545"/>
</g>
<defs>
<clipPath id="clip0_150_293">
<rect width="26" height="26" fill="white"/>
</clipPath>
</defs>
</svg>
