<svg width="32" height="30" viewBox="0 0 32 30" fill="none" xmlns="http://www.w3.org/2000/svg">
<g clip-path="url(#clip0_169_5)">
<path d="M32 15C32 18.9782 30.3143 22.7936 27.3137 25.6066C24.3131 28.4196 20.2435 30 16 30C11.7565 30 7.68687 28.4196 4.68629 25.6066C1.68571 22.7936 0 18.9782 0 15C0 11.0218 1.68571 7.20644 4.68629 4.3934C7.68687 1.58035 11.7565 0 16 0C20.2435 0 24.3131 1.58035 27.3137 4.3934C30.3143 7.20644 32 11.0218 32 15ZM22.708 10.0388C22.8958 9.86271 23.0013 9.62395 23.0013 9.375C23.0013 9.12605 22.8958 8.88729 22.708 8.71125C22.5202 8.53521 22.2656 8.43632 22 8.43632C21.7344 8.43632 21.4798 8.53521 21.292 8.71125L9.292 19.9612C9.19902 20.0484 9.12527 20.1519 9.07495 20.2658C9.02463 20.3797 8.99874 20.5017 8.99874 20.625C8.99874 20.7483 9.02463 20.8703 9.07495 20.9842C9.12527 21.0981 9.19902 21.2016 9.292 21.2888C9.47977 21.4648 9.73445 21.5637 10 21.5637C10.1315 21.5637 10.2617 21.5394 10.3832 21.4922C10.5046 21.4451 10.615 21.3759 10.708 21.2888L22.708 10.0388Z" fill="#D64545"/>
</g>
<defs>
<clipPath id="clip0_169_5">
<rect width="32" height="30" fill="white"/>
</clipPath>
</defs>
</svg>
