<svg width="34" height="33" viewBox="0 0 34 33" fill="none" xmlns="http://www.w3.org/2000/svg">
<path d="M16.6452 13.4062C16.9211 13.4062 17.1857 13.5149 17.3808 13.7083C17.5759 13.9017 17.6855 14.164 17.6855 14.4375V17.5312H20.8065C21.0824 17.5312 21.347 17.6399 21.5421 17.8333C21.7372 18.0267 21.8468 18.289 21.8468 18.5625C21.8468 18.836 21.7372 19.0983 21.5421 19.2917C21.347 19.4851 21.0824 19.5938 20.8065 19.5938H17.6855V22.6875C17.6855 22.961 17.5759 23.2233 17.3808 23.4167C17.1857 23.6101 16.9211 23.7188 16.6452 23.7188C16.3693 23.7188 16.1047 23.6101 15.9096 23.4167C15.7145 23.2233 15.6049 22.961 15.6049 22.6875V19.5938H12.4839C12.208 19.5938 11.9434 19.4851 11.7483 19.2917C11.5532 19.0983 11.4436 18.836 11.4436 18.5625C11.4436 18.289 11.5532 18.0267 11.7483 17.8333C11.9434 17.6399 12.208 17.5312 12.4839 17.5312H15.6049V14.4375C15.6049 14.164 15.7145 13.9017 15.9096 13.7083C16.1047 13.5149 16.3693 13.4062 16.6452 13.4062Z" fill="#F7F7F7"/>
<path d="M29.129 9.28125V28.875C29.129 29.969 28.6906 31.0182 27.9102 31.7918C27.1298 32.5654 26.0713 33 24.9677 33H8.32255C7.2189 33 6.16046 32.5654 5.38007 31.7918C4.59968 31.0182 4.16125 29.969 4.16125 28.875V4.125C4.16125 3.03098 4.59968 1.98177 5.38007 1.20818C6.16046 0.434597 7.2189 0 8.32255 0L19.7661 0L29.129 9.28125ZM22.8871 9.28125C22.0593 9.28125 21.2655 8.9553 20.6802 8.37511C20.0949 7.79492 19.7661 7.00801 19.7661 6.1875V2.0625H8.32255C7.77072 2.0625 7.2415 2.2798 6.85131 2.66659C6.46111 3.05339 6.2419 3.57799 6.2419 4.125V28.875C6.2419 29.422 6.46111 29.9466 6.85131 30.3334C7.2415 30.7202 7.77072 30.9375 8.32255 30.9375H24.9677C25.5195 30.9375 26.0487 30.7202 26.4389 30.3334C26.8291 29.9466 27.0484 29.422 27.0484 28.875V9.28125H22.8871Z" fill="#F7F7F7"/>
</svg>
