<svg width="30" height="33" viewBox="0 0 30 33" fill="none" xmlns="http://www.w3.org/2000/svg">
<path d="M29.0662 4.00121C29.2414 4.19451 29.3398 4.45632 29.3398 4.72927C29.3398 5.00221 29.2414 5.26403 29.0662 5.45733L27.1106 7.61058L23.3606 3.48558L25.3162 1.33233C25.492 1.139 25.7304 1.0304 25.979 1.0304C26.2276 1.0304 26.466 1.139 26.6418 1.33233L29.0662 3.99914V4.00121ZM25.785 9.06671L22.035 4.94171L9.26058 18.9956C9.15738 19.1091 9.0797 19.2475 9.03371 19.3998L7.52433 24.3787C7.49696 24.4695 7.49307 24.5668 7.51311 24.6599C7.53314 24.7529 7.57631 24.838 7.63778 24.9057C7.69926 24.9733 7.77662 25.0208 7.86121 25.0428C7.94581 25.0648 8.03431 25.0606 8.11683 25.0305L12.6431 23.3701C12.7814 23.3202 12.9072 23.2354 13.0106 23.1226L25.785 9.06671Z" fill="#F7F7F7"/>
<path fill-rule="evenodd" clip-rule="evenodd" d="M1.875 27.8438C1.875 28.6643 2.17132 29.4512 2.69876 30.0314C3.22621 30.6116 3.94158 30.9375 4.6875 30.9375H25.3125C26.0584 30.9375 26.7738 30.6116 27.3012 30.0314C27.8287 29.4512 28.125 28.6643 28.125 27.8438V15.4688C28.125 15.1952 28.0262 14.9329 27.8504 14.7395C27.6746 14.5461 27.4361 14.4375 27.1875 14.4375C26.9389 14.4375 26.7004 14.5461 26.5246 14.7395C26.3488 14.9329 26.25 15.1952 26.25 15.4688V27.8438C26.25 28.1173 26.1512 28.3796 25.9754 28.573C25.7996 28.7664 25.5611 28.875 25.3125 28.875H4.6875C4.43886 28.875 4.2004 28.7664 4.02459 28.573C3.84877 28.3796 3.75 28.1173 3.75 27.8438V5.15625C3.75 4.88275 3.84877 4.62044 4.02459 4.42705C4.2004 4.23365 4.43886 4.125 4.6875 4.125H16.875C17.1236 4.125 17.3621 4.01635 17.5379 3.82295C17.7137 3.62956 17.8125 3.36725 17.8125 3.09375C17.8125 2.82025 17.7137 2.55794 17.5379 2.36455C17.3621 2.17115 17.1236 2.0625 16.875 2.0625H4.6875C3.94158 2.0625 3.22621 2.38845 2.69876 2.96864C2.17132 3.54883 1.875 4.33574 1.875 5.15625V27.8438Z" fill="#F7F7F7"/>
</svg>
