<svg width="30" height="33" viewBox="0 0 30 33" fill="none" xmlns="http://www.w3.org/2000/svg">
<path d="M10.3125 18.5625C10.3125 18.289 10.4113 18.0267 10.5871 17.8333C10.7629 17.6399 11.0014 17.5312 11.25 17.5312H18.75C18.9986 17.5312 19.2371 17.6399 19.4129 17.8333C19.5887 18.0267 19.6875 18.289 19.6875 18.5625C19.6875 18.836 19.5887 19.0983 19.4129 19.2917C19.2371 19.4851 18.9986 19.5938 18.75 19.5938H11.25C11.0014 19.5938 10.7629 19.4851 10.5871 19.2917C10.4113 19.0983 10.3125 18.836 10.3125 18.5625Z" fill="#F7F7F7"/>
<path d="M26.25 9.28125V28.875C26.25 29.969 25.8549 31.0182 25.1516 31.7918C24.4484 32.5654 23.4946 33 22.5 33H7.5C6.50544 33 5.55161 32.5654 4.84835 31.7918C4.14509 31.0182 3.75 29.969 3.75 28.875V4.125C3.75 3.03098 4.14509 1.98177 4.84835 1.20818C5.55161 0.434597 6.50544 0 7.5 0L17.8125 0L26.25 9.28125ZM20.625 9.28125C19.8791 9.28125 19.1637 8.9553 18.6363 8.37511C18.1088 7.79492 17.8125 7.00801 17.8125 6.1875V2.0625H7.5C7.00272 2.0625 6.52581 2.2798 6.17417 2.66659C5.82254 3.05339 5.625 3.57799 5.625 4.125V28.875C5.625 29.422 5.82254 29.9466 6.17417 30.3334C6.52581 30.7202 7.00272 30.9375 7.5 30.9375H22.5C22.9973 30.9375 23.4742 30.7202 23.8258 30.3334C24.1775 29.9466 24.375 29.422 24.375 28.875V9.28125H20.625Z" fill="#F7F7F7"/>
</svg>
